<?xml version="1.0" encoding="UTF-8"?>
<svg id="a" data-name="Layer 1" xmlns="http://www.w3.org/2000/svg" viewBox="0 0 60 60">
  <defs>
    <style>
      .b {
        fill: #fff;
      }
    </style>
  </defs>
  <path class="b" d="m16.56,41.5c0-2.95,2.32-5.59,5.7-5.59h.53v-1.06c-2-.58-3.06-2.16-3.06-4.11s1.16-3.27,2.27-3.96c-1.9-1.64-3.06-4.01-3.06-6.96,0-5.96,4.64-9.5,10.55-9.5,1.27,0,2.53.21,3.69.63l9.92-.47v3.9h-6.96v1.06c2.06.63,3.64,2.74,3.64,5.33,0,5.33-4.64,8.65-10.29,8.65-1.48,0-2.95-.26-4.33-.74-.63.21-1.42.9-1.42,2.06,0,1.53,1.48,2.22,2.95,2.22h8.23c5.12,0,8.6,3.01,8.6,7.86,0,7.44-8.33,8.86-13.87,8.86-7.39,0-13.08-2.58-13.08-8.18Zm13.08,4.43c4.96,0,9.65-1.11,9.65-5.12,0-2.37-2-4.11-5.28-4.11h-8.39c-3.01,0-4.85,1.79-4.85,4.17,0,4.06,4.48,5.06,8.86,5.06Zm-.16-20.1c3.9,0,6.49-2.53,6.49-6.01s-2.58-5.96-6.49-5.96-6.49,2.58-6.49,5.96,2.53,6.01,6.49,6.01Z"/>
</svg>