<?xml version="1.0" encoding="UTF-8"?>
<svg id="a" data-name="Layer 1" xmlns="http://www.w3.org/2000/svg" viewBox="0 0 60 60">
  <defs>
    <style>
      .b {
        fill: #fff;
      }
    </style>
  </defs>
  <path class="b" d="m32.26,50.47h-1.55c.1-.01.21-.02.31-.04-.03-.02-.06-.03-.1-.03-.15-.01-.31,0-.45-.04-.51-.12-1.02-.23-1.52-.38-1.15-.36-2.2-.92-3.21-1.57-1.7-1.11-3.24-2.42-4.71-3.82-1.3-1.24-2.5-2.57-3.65-3.95-.1-.12-.21-.25-.32-.39.56-.44,1.11-.88,1.66-1.32-.04-.04-.07-.06-.1-.08-.24-.17-.48-.34-.73-.52-.27-.19-.55-.39-.82-.59-.05-.03-.1-.06-.04-.14.47-.65.93-1.3,1.39-1.94.06-.08.11-.15.18-.24.05.05.09.09.12.14.05.07.09.07.15,0,.71-.71,1.47-1.34,2.28-1.93.07-.05.13-.1.18-.14-.18-.26-.37-.49-.52-.75-.63-1.15-.74-2.36-.33-3.61.33-1,.98-1.77,1.84-2.38.04-.03.08-.06.12-.1-.05-.05-.08-.08-.12-.11-.39-.35-.75-.74-1.07-1.15-1.06-1.38-1.62-2.96-1.77-4.68-.09-.98-.04-1.95.16-2.92.27-1.34.81-2.56,1.66-3.64,1.02-1.29,2.32-2.19,3.83-2.81,1.23-.5,2.52-.74,3.84-.84.91-.07,1.81-.02,2.71.11.6.09,1.19.19,1.76.42.73.3,1.46.6,2.12,1.04,1.08.73,1.99,1.64,2.73,2.71.68.98,1.16,2.05,1.36,3.23.09.56.12,1.13.18,1.69.07.64.09,1.28.01,1.92-.1.89-.32,1.73-.7,2.54-.72,1.53-1.85,2.67-3.29,3.53-1.75,1.03-3.66,1.46-5.66,1.55-.62.03-1.24-.03-1.86-.1-.9-.11-1.77-.31-2.63-.59-.07-.02-.17-.02-.24,0-.39.16-.7.43-.94.78-.27.4-.35.85-.34,1.33.01.36.12.67.31.97.04.06.08.07.14.04.23-.09.46-.18.69-.27,1.42-.52,2.9-.79,4.41-.85,1.14-.05,2.27.1,3.38.36,1.77.4,3.4,1.13,4.92,2.11,1.79,1.16,3.37,2.56,4.75,4.18,1.04,1.21,1.93,2.51,2.72,3.89.02.03.01.1-.01.13-.08.1-.17.2-.25.29-.71.85-1.42,1.69-2.21,2.47-.65.64-1.29,1.28-1.98,1.86-1.23,1.04-2.51,2.03-3.91,2.85-1.03.6-2.11,1.1-3.27,1.4-.61.16-1.23.29-1.86.29l.25.05Zm8.03-9.66c-.31-.36-.6-.7-.9-1.04-.99-1.14-2.1-2.14-3.35-2.99-1.5-1.01-3.12-1.72-4.95-1.92-.84-.09-1.67-.08-2.5.05-.98.15-1.91.45-2.8.88-1.59.75-2.97,1.79-4.2,3.02-.03.03-.07.07-.1.11.03.03.04.05.06.07.73.77,1.45,1.55,2.2,2.3,1.11,1.11,2.27,2.17,3.57,3.07.88.61,1.77,1.17,2.77,1.56.65.26,1.32.37,2.02.27.68-.1,1.32-.33,1.94-.62,1.27-.59,2.42-1.36,3.48-2.25.69-.58,1.35-1.19,2.02-1.79.25-.23.48-.48.74-.73Zm-10.58-26.86c-.59-.02-1.33.08-2.06.29-1.33.39-2.43,1.1-3.21,2.25-1.02,1.5-1.22,3.16-.81,4.89.39,1.66,1.39,2.88,2.91,3.65.82.42,1.7.62,2.62.69,1.09.08,2.16-.02,3.2-.38,1.38-.49,2.46-1.35,3.17-2.65.66-1.21.82-2.51.61-3.85-.28-1.79-1.23-3.14-2.81-4.03-1.07-.61-2.23-.85-3.61-.85Z"/>
  <polygon class="b" points="31.3 13.72 34.82 10.66 36.14 6.67 39.88 7.71 38.99 11.58 35.45 14.94 31.3 13.72"/>
</svg>