<?xml version="1.0" encoding="UTF-8"?>
<svg id="a" data-name="Layer 1" xmlns="http://www.w3.org/2000/svg" viewBox="0 0 60 60">
  <defs>
    <style>
      .b {
        fill: #fff;
      }
    </style>
  </defs>
  <path class="b" d="m33.67,8.7c.59,0,1.18,0,1.76,0-.1.01-.21.03-.31.04.03.02.06.03.09.03.16.01.33,0,.49.03,1.29.21,2.43.72,3.39,1.63,1.51,1.42,2.37,3.15,2.56,5.22.06.66-.01,1.31-.17,1.94-.25,1.02-.72,1.92-1.49,2.65-.57.54-1.24.92-1.96,1.21-1.4.57-2.87.83-4.38.93-.11,0-.2-.02-.28-.08-.1-.08-.2-.15-.31-.22-.33-.21-.66-.41-1.05-.51-.1-.03-.15-.02-.16.1,0,.11-.02.22-.04.33-.01.09.02.14.09.19.21.15.43.29.62.47.39.35.67.78.75,1.31.07.44.09.88.04,1.33-.09.89-.38,1.7-.99,2.37-.75.83-1.63,1.5-2.61,2.04-.75.41-1.56.58-2.4.53-.58-.03-1.16-.12-1.74-.19-.39-.05-.78-.12-1.17-.18-.09-.01-.14.02-.19.1-.2.35-.29.73-.28,1.13.01.66.28,1.18.83,1.56.59.41,1.27.56,1.98.56,2.69,0,5.39,0,8.08,0,.34,0,.68.01,1.02.05,1.13.11,2.21.37,3.24.86,1.24.6,2.25,1.46,2.98,2.64.65,1.05.95,2.2,1.06,3.41.08.9,0,1.78-.21,2.66-.3,1.27-.93,2.35-1.85,3.27-.55.55-1.19,1-1.87,1.38-1.25.7-2.6,1.14-3.99,1.44-.84.18-1.69.32-2.55.4-.72.06-1.43.13-2.15.16-1.36.04-2.71,0-4.06-.18-.87-.12-1.74-.26-2.59-.49-1.21-.32-2.38-.75-3.45-1.41-.89-.54-1.67-1.21-2.28-2.07-.66-.93-1.03-1.98-1.12-3.11-.06-.77-.03-1.54.2-2.28.72-2.28,2.72-3.76,5.16-3.83.21,0,.42,0,.65,0,0-.3,0-.59,0-.88,0-.12-.03-.17-.14-.2-.5-.16-.96-.39-1.37-.72-1.1-.9-1.51-2.11-1.45-3.49.03-.8.31-1.54.76-2.21.04-.06.03-.09-.02-.13-.56-.45-1.06-.96-1.48-1.55-.68-.97-1.02-2.05-1.03-3.23,0-.3.04-.59.1-.89.27-1.48.91-2.78,1.93-3.88.97-1.06,2.19-1.74,3.57-2.12.81-.23,1.63-.34,2.47-.32,0-.02,0-.04,0-.06.05-.54.07-1.09.14-1.63.12-.93.38-1.82.81-2.66.42-.81,1.01-1.47,1.81-1.92.82-.46,1.69-.81,2.59-1.08.59-.17,1.19-.31,1.8-.36.15-.01.29-.02.44-.02,0,0,0,0,0-.01-.1-.02-.2-.03-.29-.05Zm-3.67,28.16c-1.23,0-2.45,0-3.68,0-.72,0-1.43.02-2.13.2-.93.24-1.74.7-2.34,1.47-.66.85-.87,1.82-.77,2.87.1,1.02.52,1.88,1.29,2.57.58.52,1.26.86,1.98,1.13,1.22.45,2.49.61,3.77.69.98.06,1.95.07,2.93.02,1.04-.06,2.08-.15,3.1-.36.94-.2,1.84-.48,2.68-.95.64-.36,1.19-.81,1.59-1.43.54-.82.71-1.73.59-2.71-.07-.58-.27-1.11-.61-1.58-.53-.74-1.26-1.22-2.11-1.53-.83-.3-1.7-.38-2.58-.38-1.24,0-2.48,0-3.72,0Zm.21-13.24c0-.19,0-.37-.03-.56-.22-1.45-1.02-2.45-2.37-2.97-1.11-.43-2.25-.44-3.38-.07-.98.32-1.71.94-2.18,1.86-.33.65-.43,1.34-.37,2.06.1,1.34.72,2.35,1.89,3.02.64.36,1.33.5,2.06.52.8.02,1.59-.07,2.32-.44.5-.26.95-.58,1.3-1.03.54-.7.79-1.51.78-2.39Zm8.09-7.81c-.03-.26-.03-.52-.08-.77-.31-1.5-1.26-2.44-2.7-2.87-.71-.22-1.45-.24-2.19-.14-1.03.14-1.9.58-2.57,1.38-.77.93-.97,2.02-.76,3.18.29,1.57,1.27,2.54,2.8,2.95.76.2,1.54.21,2.31.07.93-.17,1.72-.59,2.33-1.32.6-.71.85-1.55.86-2.47Z"/>
</svg>