<?xml version="1.0" encoding="UTF-8"?>
<svg id="a" data-name="Layer 1" xmlns="http://www.w3.org/2000/svg" viewBox="0 0 60 60">
  <defs>
    <style>
      .b {
        fill: #fff;
      }
    </style>
  </defs>
  <path class="b" d="m42.74,39.91v1.49s-.02-.06-.04-.11c-.02.56-.09,1.09-.24,1.61-.36,1.33-1.06,2.45-2.09,3.36-.83.74-1.79,1.28-2.81,1.71-1.35.57-2.77.91-4.22,1.12-.66.09-1.33.16-1.99.21-.67.05-1.34.09-2,.09-.73,0-1.45-.05-2.18-.09-.37-.02-.73-.05-1.1-.1-.74-.12-1.49-.23-2.22-.39-1.37-.3-2.68-.78-3.89-1.51-.98-.6-1.82-1.35-2.44-2.34-.48-.77-.78-1.61-.9-2.51-.09-.7-.11-1.39.04-2.08.42-1.88,1.52-3.2,3.3-3.94.68-.29,1.4-.39,2.14-.41.16,0,.32,0,.49,0,0-.3,0-.58,0-.87,0-.14-.05-.19-.17-.23-.6-.2-1.15-.5-1.6-.94-.83-.81-1.16-1.83-1.19-2.96-.02-.66.14-1.29.42-1.88.37-.79.94-1.4,1.64-1.9.04-.03.07-.06.11-.09,0-.02-.01-.03-.02-.04-.03-.03-.06-.06-.09-.09-.93-.84-1.65-1.84-2.14-3-.44-1.06-.66-2.17-.69-3.32-.03-.99.06-1.97.32-2.93.22-.82.55-1.58,1-2.3.05-.08.05-.14-.02-.21-1.26-1.41-2.52-2.82-3.78-4.23-.15-.17-.15-.17.02-.31.84-.75,1.68-1.5,2.52-2.25.09-.08.14-.07.2.02.17.22.34.44.52.66.84,1.04,1.68,2.08,2.53,3.12.17.22.35.43.53.64.22-.13.41-.25.62-.37,1.7-.96,3.56-1.34,5.49-1.41.92-.04,1.83.08,2.73.28.41.09.82.22,1.22.34.69.21,1.37.44,1.91.95.05.05.08.04.12-.02.08-.11.16-.22.25-.32,1.01-1.24,2.02-2.48,3.02-3.72.22-.27.44-.55.66-.83.04-.05.07-.1.15-.03.63.57,1.27,1.14,1.91,1.71.26.23.52.47.79.71-.02.04-.04.07-.07.11-.14.16-.28.31-.42.47-1.02,1.15-2.05,2.29-3.07,3.44-.28.31-.56.61-.82.93-.09.11-.18.16-.31.13-.25-.05-.49-.11-.73-.16-.19-.04-.39-.06-.6-.09,0,.04,0,.08,0,.11,0,.25,0,.5,0,.75,0,.11.03.17.14.21.82.28,1.5.78,2.06,1.43.82.97,1.24,2.1,1.33,3.36.05.68-.02,1.35-.15,2.02-.28,1.44-.94,2.7-1.95,3.76-1.09,1.15-2.42,1.92-3.92,2.41-.69.23-1.4.4-2.13.49-.47.06-.94.11-1.42.14-.62.04-1.24-.03-1.86-.1-.9-.11-1.78-.31-2.64-.6-.06-.02-.14-.02-.2,0-.95.42-1.39,1.27-1.27,2.3.07.55.36.97.81,1.28.57.39,1.21.55,1.88.55,2.56,0,5.12,0,7.68,0,.76,0,1.52.03,2.27.16,1.09.18,2.12.5,3.08,1.07.9.53,1.65,1.22,2.23,2.09.68,1.03,1.09,2.16,1.16,3.4,0,.12.02.23.03.35,0,0,.01,0,.02,0,.01-.1.02-.19.03-.29Zm-13.26-3.15s0,0,0,0c-1.47,0-2.94,0-4.41,0-.67,0-1.33.14-1.95.4-.86.35-1.54.91-2,1.72-.5.9-.57,1.87-.39,2.87.12.64.39,1.21.81,1.71.59.69,1.34,1.14,2.17,1.46,1.15.45,2.36.66,3.59.74.77.05,1.55.07,2.33.08.95,0,1.89-.06,2.83-.18.81-.1,1.61-.26,2.4-.51.82-.26,1.59-.6,2.27-1.13,1.13-.9,1.61-2.08,1.5-3.5-.09-1.19-.69-2.09-1.66-2.75-.94-.63-2-.88-3.11-.9-1.46-.03-2.92,0-4.38,0Zm-.37-22.25c-.38.03-.77.05-1.15.1-.97.12-1.88.44-2.7.98-.08.05-.14.13-.21.2-.02.02-.04.03-.05.04-.1.06-.2.1-.28.17-.7.6-1.22,1.33-1.55,2.19-.25.66-.38,1.35-.38,2.06,0,.54.04,1.08.17,1.61.37,1.49,1.2,2.65,2.52,3.43.96.58,2.02.84,3.13.9.9.05,1.78-.03,2.65-.28,1.3-.38,2.39-1.09,3.16-2.22.96-1.38,1.19-2.93.88-4.55-.34-1.79-1.37-3.09-3-3.91-1-.51-2.07-.72-3.19-.73Z"/>
</svg>